# xmcd
#
# Track frame offsets: 
#        150
#        1946
#        21096
#        33846
#        49840
#        65477
#        85126
#        103531
#        108136
#        126546
#        140527
#        161673
#        177006
#        193537
#        211916
#        230148
#
# Disc length: 3312 seconds
#
# Revision: 0
# Processed by: cddbd v1.5.2PL0 Copyright (c) Steve Scherf et al.
# Submitted via: ExactAudioCopyFreeDBPlugin 1.0
#
DISCID=d20cee10
DTITLE=Jo2Plainp - Fourmis Dans La Faune
DYEAR=2014
DGENRE=Hip-hop
TTITLE0=Intro
TTITLE1=Ligne directrice
TTITLE2=A coeur fermé ft Kaz
TTITLE3=Fourmis dans la faune ft Dk
TTITLE4=Dans leur monde ft Joha
TTITLE5=Désorienté ft NEfa
TTITLE6=33 Tours ft Chris Baker Ztareg and Ito
TTITLE7=Interlude
TTITLE8=Les brèzes deat. Joha
TTITLE9=Journal intime ft Mim's
TTITLE10=Stylo thérapie ft Wira Malik and Maki
TTITLE11=Môme sage ft Unconito
TTITLE12=Mauvaise habitude ft Grams
TTITLE13=Chacun son parcour ft Double 3
TTITLE14=Alone ft Chakal
TTITLE15=Outro
EXTD=
EXTT0=
EXTT1=
EXTT2=
EXTT3=
EXTT4=
EXTT5=
EXTT6=
EXTT7=
EXTT8=
EXTT9=
EXTT10=
EXTT11=
EXTT12=
EXTT13=
EXTT14=
EXTT15=
PLAYORDER=
